<svg id="Layer_1" data-name="Layer 1" xmlns="http://www.w3.org/2000/svg" viewBox="0 0 1724.79 843.89"><defs><style>.cls-1{fill:none;}.cls-2{fill:#b6ace4;}</style></defs><path class="cls-1" d="M1712,578.37c-10.85,33.1-25.3,67.49-56.45,89.22-15.64,10.95-34.59,17.87-53.7,23.54-81.27,24.08-85.72,35.21-254.55,18.87-26.85-2.6-56.92-8.27-80.27-17.66-33-13.36-59.08-36.4-82.71-60.23-20.64-20.86-40.59-43.49-47.84-70.14-11.23-41.31,10-83.73,33.88-120.9a857.49,857.49,0,0,1,57.94-79.62c12.47-15.23,25.68-30.39,33.07-47.9,14.43-34.17,6.31-71.78,29.06-102.45,18.18-24.53,53-43.3,84.85-53.3,55.19-17.32,110.48-29.4,169.25-30.32,24.93-.38,50.63,2.17,72.56,12.34,19.83,9.26,35.33,24.15,48.33,40a248.11,248.11,0,0,1,45.42,85c4.85,16,9.67,32,14,48.06V0h-1358a163.47,163.47,0,0,1,13.38,15.64c31.14,41.19,41,90.63,44.62,138.79s1.7,96.77,12.21,144.31c7.44,33.75,21,66.42,31.89,99.58a650.36,650.36,0,0,1,32.25,179.47c.88,24.23.34,49.19-8.25,72.71s-25.86,45.34-52,57.16c-16.31,7.37-35.07,10.44-53.66,12-82.55,7-171.53-5-236.45-48.07S46,554.84,37,487.11c-12.55-94.68,38.71-187.7,34.26-282.79-1.91-40.82-2.58-86.51-.43-127.51.92-17.34,5.66-31.31,16.72-46.57C100.73,12.08,103.81,7.88,114.08,0H0V843.89H1724.79V534.47C1721,549.23,1716.73,563.87,1712,578.37Zm-553.52-416.7c9.14-14,20.87-27.44,37.14-35.44,26.87-13.23,81.53-6.06,56.88,28.85-13.41,18.78-34.69,32.48-59.49,38.32-7.66,1.72-15.83,2.7-23.48,1s-14.73-6.4-16.65-13.13S1154.55,167.67,1158.46,161.67ZM149,769.84a95.15,95.15,0,0,1-31.79,4.92c-8.06-.12-21.1-2.29-26.62-4.89a76.17,76.17,0,0,1-16-10.42c-13.81-12-26-25.24-32.24-39.55S36.31,690,46.16,678c5.18-6.28,11.08-12.32,22.3-7.22,6.26,2.84,10.17,8,13.25,12.57a36.66,36.66,0,0,0,4.5,5.52c13.28,13.41,32,26.49,50.91,36.24,6.71,3.44,13.55,6.86,19.14,11.14s10,9.59,10.56,15.08C167.65,759.55,159.43,766.58,149,769.84Zm1543.24-58.15c-.36,11.2-7.9,21.57-17.86,28.84s-22.2,11.84-34.5,15.72c-9.68,3-19.63,5.73-29.91,6.43-5.64.38-11.56.18-16.5-2.23s-8.59-7.26-7.52-12c.79-3.26,3.53-5.92,6.45-8.1,11.52-8.54,27.59-10.63,41-16.81,12.76-5.87,17.35-8.63,26.65-15.9,6.08-4.71,16.11-15.62,24.34-11.28C1690.28,699.43,1692.47,705.84,1692.28,711.69Z"/><path class="cls-2" d="M87.56,30.24C76.5,45.5,71.76,59.47,70.84,76.81c-2.15,41-1.48,86.69.43,127.51C75.72,299.41,24.46,392.43,37,487.11c9,67.73,48.86,141.36,113.78,184.43s153.9,55,236.45,48.07c18.59-1.51,37.35-4.58,53.66-12,26.11-11.82,43.37-33.63,52-57.16S502,602,501.12,577.79a650.36,650.36,0,0,0-32.25-179.47C458,365.16,444.42,332.49,437,298.74c-10.51-47.54-8.58-96.14-12.21-144.31s-13.48-97.6-44.62-138.79A163.47,163.47,0,0,0,366.77,0H114.08C103.81,7.88,100.73,12.08,87.56,30.24Z"/><path class="cls-2" d="M156.26,736.25c-5.59-4.28-12.43-7.7-19.14-11.14-19-9.75-37.63-22.83-50.91-36.24a36.66,36.66,0,0,1-4.5-5.52c-3.08-4.6-7-9.73-13.25-12.57-11.22-5.1-17.12.94-22.3,7.22-9.85,12-10,27.58-3.74,41.9s18.43,27.52,32.24,39.55a76.17,76.17,0,0,0,16,10.42c5.52,2.6,18.56,4.77,26.62,4.89A95.15,95.15,0,0,0,149,769.84c10.39-3.26,18.61-10.29,17.78-18.51C166.28,745.84,161.86,740.53,156.26,736.25Z"/><path class="cls-2" d="M1665.4,179.82c-13-15.85-28.5-30.74-48.33-40-21.93-10.17-47.63-12.72-72.56-12.34-58.77.92-114.06,13-169.25,30.32-31.88,10-66.67,28.77-84.85,53.3-22.75,30.67-14.63,68.28-29.06,102.45-7.39,17.51-20.6,32.67-33.07,47.9a857.49,857.49,0,0,0-57.94,79.62c-23.88,37.17-45.11,79.59-33.88,120.9,7.25,26.65,27.2,49.28,47.84,70.14C1207.93,655.94,1234,679,1267,692.34c23.35,9.39,53.42,15.06,80.27,17.66,168.83,16.34,173.28,5.21,254.55-18.87,19.11-5.67,38.06-12.59,53.7-23.54,31.15-21.73,45.6-56.12,56.45-89.22,4.75-14.5,9.06-29.14,12.81-43.9V312.88c-4.3-16.09-9.12-32.1-14-48.06A248.11,248.11,0,0,0,1665.4,179.82Z"/><path class="cls-2" d="M1684.43,696.36c-8.23-4.34-18.26,6.57-24.34,11.28-9.3,7.27-13.89,10-26.65,15.9-13.41,6.18-29.48,8.27-41,16.81-2.92,2.18-5.66,4.84-6.45,8.1-1.07,4.74,2.58,9.59,7.52,12s10.86,2.61,16.5,2.23c10.28-.7,20.23-3.41,29.91-6.43,12.3-3.88,24.54-8.45,34.5-15.72s17.5-17.64,17.86-28.84C1692.47,705.84,1690.28,699.43,1684.43,696.36Z"/><path class="cls-2" d="M1169.51,194.4c7.65,1.7,15.82.72,23.48-1,24.8-5.84,46.08-19.54,59.49-38.32,24.65-34.91-30-42.08-56.88-28.85-16.27,8-28,21.39-37.14,35.44-3.91,6-7.52,12.87-5.6,19.6S1161.86,192.7,1169.51,194.4Z"/></svg>