<svg id="Layer_1" data-name="Layer 1" xmlns="http://www.w3.org/2000/svg" viewBox="0 0 1724.79 843.89"><defs><style>.cls-1{fill:none;}.cls-2{fill:#b6ace4;}</style></defs><path class="cls-1" d="M1712,578.37c-10.85,33.1-25.3,67.49-56.45,89.22-15.64,10.95-34.59,17.87-53.7,23.54-81.27,24.08-85.72,35.21-254.55,18.87-26.85-2.6-56.92-8.27-80.27-17.66-33-13.36-59.08-36.4-82.71-60.23-20.64-20.86-40.59-43.49-47.84-70.14-11.23-41.31,10-83.73,33.88-120.9a857.49,857.49,0,0,1,57.94-79.62c12.47-15.23,25.68-30.39,33.07-47.9,14.43-34.17,6.31-71.78,29.06-102.45,18.18-24.53,53-43.3,84.85-53.3,55.19-17.32,110.48-29.4,169.25-30.32,24.93-.38,50.63,2.17,72.56,12.34,19.83,9.26,35.33,24.15,48.33,40a248.11,248.11,0,0,1,45.42,85c4.85,16,9.67,32,14,48.06V0H411.17a171.09,171.09,0,0,1,14.34,14.13c36,39.84,48.8,88.82,54.66,136.8s5.6,96.61,19.05,143.67c9.52,33.42,25.77,65.48,39.07,98.15a594.83,594.83,0,0,1,42.56,178c1.89,24.19,2.26,49.15-6.33,73a103.66,103.66,0,0,1-55.24,59.33c-17.74,8.06-38.36,11.92-58.85,14.23-91,10.46-189.79,2.3-263.21-38S76.88,567.15,64.36,499.86c-17.51-94.08,35.56-189.21,27-284-3.69-40.71-6.18-86.33-5.38-127.4.35-17.36,5-31.53,16.68-47.25,16.52-22.29,18-24.16,35.5-36.69q3.19-2.3,6.35-4.48H0V843.89H1724.79V534.47C1721,549.23,1716.73,563.87,1712,578.37Zm-553.52-416.7c9.14-14,20.87-27.44,37.14-35.44,26.87-13.23,81.53-6.06,56.88,28.85-13.41,18.78-34.69,32.48-59.49,38.32-7.66,1.72-15.83,2.7-23.48,1s-14.73-6.4-16.65-13.13S1154.55,167.67,1158.46,161.67ZM199.07,777.61a115.58,115.58,0,0,1-34.95,6.27c-8.92.22-23.41-1.39-29.61-3.75a85.11,85.11,0,0,1-18-9.74c-15.74-11.43-29.7-24.11-37.17-38.15s-7.89-29.6,2.53-42c5.48-6.5,11.77-12.79,24.36-8.17,7,2.58,11.56,7.53,15.14,12a38.34,38.34,0,0,0,5.18,5.33c15.2,12.83,36.35,25.1,57.67,34,7.55,3.15,15.24,6.28,21.59,10.32s11.44,9.15,12.25,14.62C219.25,766.54,210.42,773.91,199.07,777.61Zm1493.21-65.92c-.36,11.2-7.9,21.57-17.86,28.84s-22.2,11.84-34.5,15.72c-9.68,3-19.63,5.73-29.91,6.43-5.64.38-11.56.18-16.5-2.23s-8.59-7.26-7.52-12c.79-3.26,3.53-5.92,6.45-8.1,11.52-8.54,27.59-10.63,41-16.81,12.76-5.87,17.35-8.63,26.65-15.9,6.08-4.71,16.11-15.62,24.34-11.28C1690.28,699.43,1692.47,705.84,1692.28,711.69Z"/><path class="cls-2" d="M102.65,41.17C91,56.89,86.32,71.06,86,88.42c-.8,41.07,1.69,86.69,5.38,127.4,8.57,94.83-44.5,190-27,284C76.88,567.15,123.81,639,197.22,679.31s172.22,48.44,263.21,38c20.49-2.31,41.11-6.17,58.85-14.23a103.66,103.66,0,0,0,55.24-59.33c8.59-23.87,8.22-48.83,6.33-73a594.83,594.83,0,0,0-42.56-178C525,360.08,508.74,328,499.22,294.6c-13.45-47.06-13.19-95.7-19.05-143.67s-18.66-97-54.66-136.8A171.09,171.09,0,0,0,411.17,0H144.5q-3.15,2.19-6.35,4.48C120.61,17,119.17,18.88,102.65,41.17Z"/><path class="cls-2" d="M205.76,743.74c-6.35-4-14-7.17-21.59-10.32-21.32-8.94-42.47-21.21-57.67-34a38.34,38.34,0,0,1-5.18-5.33c-3.58-4.47-8.1-9.42-15.14-12-12.59-4.62-18.88,1.67-24.36,8.17-10.42,12.42-10,28-2.53,42s21.43,26.72,37.17,38.15a85.11,85.11,0,0,0,18,9.74c6.2,2.36,20.69,4,29.61,3.75a115.58,115.58,0,0,0,34.95-6.27c11.35-3.7,20.18-11.07,18.94-19.25C217.2,752.89,212.11,747.78,205.76,743.74Z"/><path class="cls-2" d="M1665.4,179.82c-13-15.85-28.5-30.74-48.33-40-21.93-10.17-47.63-12.72-72.56-12.34-58.77.92-114.06,13-169.25,30.32-31.88,10-66.67,28.77-84.85,53.3-22.75,30.67-14.63,68.28-29.06,102.45-7.39,17.51-20.6,32.67-33.07,47.9a857.49,857.49,0,0,0-57.94,79.62c-23.88,37.17-45.11,79.59-33.88,120.9,7.25,26.65,27.2,49.28,47.84,70.14C1207.93,655.94,1234,679,1267,692.34c23.35,9.39,53.42,15.06,80.27,17.66,168.83,16.34,173.28,5.21,254.55-18.87,19.11-5.67,38.06-12.59,53.7-23.54,31.15-21.73,45.6-56.12,56.45-89.22,4.75-14.5,9.06-29.14,12.81-43.9V312.88c-4.3-16.09-9.12-32.1-14-48.06A248.11,248.11,0,0,0,1665.4,179.82Z"/><path class="cls-2" d="M1684.43,696.36c-8.23-4.34-18.26,6.57-24.34,11.28-9.3,7.27-13.89,10-26.65,15.9-13.41,6.18-29.48,8.27-41,16.81-2.92,2.18-5.66,4.84-6.45,8.1-1.07,4.74,2.58,9.59,7.52,12s10.86,2.61,16.5,2.23c10.28-.7,20.23-3.41,29.91-6.43,12.3-3.88,24.54-8.45,34.5-15.72s17.5-17.64,17.86-28.84C1692.47,705.84,1690.28,699.43,1684.43,696.36Z"/><path class="cls-2" d="M1169.51,194.4c7.65,1.7,15.82.72,23.48-1,24.8-5.84,46.08-19.54,59.49-38.32,24.65-34.91-30-42.08-56.88-28.85-16.27,8-28,21.39-37.14,35.44-3.91,6-7.52,12.87-5.6,19.6S1161.86,192.7,1169.51,194.4Z"/></svg>