<svg id="Layer_1" data-name="Layer 1" xmlns="http://www.w3.org/2000/svg" viewBox="0 0 108.67 299.86"><defs><style>.cls-1{fill:#faeee0;stroke:#000;stroke-miterlimit:10;}</style></defs><path class="cls-1" d="M258.27,501.35q-13.51,0-21-8.11t-7.45-22.72q0-9.12.7-22.83t1.86-30.13q1.17-16.44,2.56-34.14t2.8-35q1.4-17.36,2.56-33t1.87-27.86q.69-12.21.7-19.29,0-8-1.4-11.3c-.93-2.2-3.19-3.61-6.76-4.22A28.06,28.06,0,0,0,223.08,254q-6.53,2-12.59,3.88t-9.78,1.49a13.68,13.68,0,0,1-6.65-4.8,12,12,0,0,1-2-6.85q0-7.06,7.81-14.84a94,94,0,0,1,19.81-14.61,155.42,155.42,0,0,1,24.35-11.3q12.36-4.45,21-4.45,11.42,0,18.29,6.39t10.37,17.24a114.69,114.69,0,0,1,4.78,24q1.27,13.12,1.28,26.83,0,8.9-.46,20.89t-1.17,25.8q-.71,13.81-1.75,28.65t-2.21,30.14q-1.17,15.3-2.33,29.91t-2.22,28q-1,13.37-2.21,24.55-3,18.49-9.79,27.51T258.27,501.35Z" transform="translate(-191.58 -201.99)"/></svg>