<svg id="Layer_1" data-name="Layer 1" xmlns="http://www.w3.org/2000/svg" viewBox="0 0 202.82 292.97"><defs><style>.cls-1{fill:#faeee0;stroke:#000;stroke-miterlimit:10;}</style></defs><path class="cls-1" d="M248.25,495.41A151,151,0,0,1,222,490.84q-11.53-3.19-18.18-9.81t-6.64-18.5a52.46,52.46,0,0,1,3.84-20.09q3.85-9.36,16.2-18.95,9.31-8.67,24.47-21.23T274.47,375q17.58-14.73,33.44-29.34a182.93,182.93,0,0,0,19.57-20.32A104.89,104.89,0,0,0,340.77,305q4.89-10,4.89-18.72,0-21.69-11.77-30.14t-32.51-8.45q-18.87,0-32.39,5.83a77.65,77.65,0,0,0-22.37,14,105.3,105.3,0,0,0-11.42,12.1A121.5,121.5,0,0,1,224.94,291q-4.89,4.68-10.25,4.68a18.75,18.75,0,0,1-12.12-4.34q-5.37-4.33-5.36-12.56,0-12.09,7.46-25.11t21.44-24.2a114.68,114.68,0,0,1,33.56-18.15q19.57-7,43.58-7a170.51,170.51,0,0,1,38,4A90,90,0,0,1,371.65,221a59,59,0,0,1,20,22.72q7.11,14,7.11,34.36a74.06,74.06,0,0,1-5.13,27.4,105.36,105.36,0,0,1-14.45,25.22,227.4,227.4,0,0,1-21.91,24.55q-8.15,8-18.41,17.46t-21,19.07q-10.73,9.58-20.51,17.81t-16.78,13.92a47.64,47.64,0,0,0-9.32,9.36,15.4,15.4,0,0,0-3,8.91c0,2.13,1.43,3.65,4.31,4.56a46,46,0,0,0,10.61,1.83q6.29.47,12.58.46a213.5,213.5,0,0,0,25.87-1.94l30.76-3.88a208.24,208.24,0,0,1,25.17-2q9.56,0,15.5,4.11T399,456.83q0,10.28-5.71,17.12t-17,11.19q-11.31,4.33-28.08,6.62t-39.16,3.65q-13.76.45-29.94.8T248.25,495.41Z" transform="translate(-196.71 -203.81)"/></svg>