<svg id="Layer_1" data-name="Layer 1" xmlns="http://www.w3.org/2000/svg" viewBox="0 0 234.28 303.97"><defs><style>.cls-1{fill:#faeee0;stroke:#000;stroke-miterlimit:10;}</style></defs><path class="cls-1" d="M291.13,505.68A223.34,223.34,0,0,1,252,502.37a183.56,183.56,0,0,1-33.56-9q-14.92-5.72-23.54-13.13t-8.62-15.41a22.61,22.61,0,0,1,2.09-10.28,16.2,16.2,0,0,1,5.36-6.28,24.53,24.53,0,0,1,6.88-3.19,24.24,24.24,0,0,1,6.64-1q7.7,0,20.28,4.79t29.13,9.59a130.13,130.13,0,0,0,36.35,4.8,139.49,139.49,0,0,0,28.67-2.74,82.72,82.72,0,0,0,22.84-8.11,43.57,43.57,0,0,0,15.14-13A29.28,29.28,0,0,0,365,422.12q0-13.69-6.65-22.14t-18.17-13.25A131.56,131.56,0,0,0,314,379.2a119.07,119.07,0,0,1-23.07-7q-9.79-4.23-15-10.39a21,21,0,0,1-5.24-13.93q0-12.09,8.86-17.92t24.23-10.16a120.09,120.09,0,0,0,24.47-9,46.05,46.05,0,0,0,16.43-13.36q6-8,5.95-19.86,0-13.47-8-20.55t-21.91-9.81a165.08,165.08,0,0,0-31.81-2.74,197.74,197.74,0,0,0-33.44,2.62q-15.27,2.63-26.34,5.37t-17.13,2.74q-10,0-15.73-5.25a16.48,16.48,0,0,1-5.71-12.56q0-8.22,9.21-14.73t24.23-10.84a227,227,0,0,1,33.45-6.74,288,288,0,0,1,37.05-2.39q37.07,0,61.18,8.33t36,23.52q11.9,15.18,11.89,35.5a54.3,54.3,0,0,1-6.06,25.68,60.31,60.31,0,0,1-16.66,19.75,88,88,0,0,1-24.82,13.24,98.52,98.52,0,0,0-14.45,7.88,10.28,10.28,0,0,0-4.66,8.79q0,5.71,7.22,9a140.71,140.71,0,0,0,16.78,6.28,125.15,125.15,0,0,1,27.73,10.84,61.54,61.54,0,0,1,22.26,20.09q8.74,12.9,8.74,33.91,0,18.72-8,33.56t-24.12,25.23q-16.08,10.38-40.09,15.87T291.13,505.68Z" transform="translate(-185.76 -202.22)"/></svg>