<svg id="Layer_1" data-name="Layer 1" xmlns="http://www.w3.org/2000/svg" viewBox="0 0 420 666"><defs><style>.cls-1{fill:#faeee0;}</style></defs><path class="cls-1" d="M247.07,147H167.81L180,71.87C180,59.79,171.47,50,161,50H77.71c-10.46,0-18.93,9.79-18.93,21.87L56,225.13a23.68,23.68,0,0,0,.18,2.94L56,229.13A21.87,21.87,0,0,0,77.86,251h67.92l1.27,110.13C148,367,155.52,383,166,383h.34c10.46,0,18.63-21,18.93-21.87L266,168.87C266,156.79,257.52,147,247.07,147Z" transform="translate(-56 -50)"/><path class="cls-1" d="M457.07,480H377.81L390,404.87C390,392.79,381.47,383,371,383H287.71c-10.46,0-18.93,9.79-18.93,21.87L266,558.13a23.68,23.68,0,0,0,.18,2.94l-.18,1.06A21.87,21.87,0,0,0,287.86,584h67.92l1.27,110.13C358,700,365.52,716,376,716h.34c10.46,0,18.63-21,18.93-21.87L476,501.87C476,489.79,467.52,480,457.07,480Z" transform="translate(-56 -50)"/></svg>