<svg id="Layer_1" data-name="Layer 1" xmlns="http://www.w3.org/2000/svg" viewBox="0 0 758.87 319.49"><defs><style>.cls-1{fill:#faeee0;stroke:#000;stroke-miterlimit:10;}</style></defs><path class="cls-1" d="M41.36,483.63q-35.65,0-63.85-9.82t-48-29.22q-19.81-19.41-30.18-48.17T-111,329.75q0-32.65,9.55-57.08a126.6,126.6,0,0,1,26.1-41.78,135.73,135.73,0,0,1,38.11-28.08A187.56,187.56,0,0,1,8.5,187.05a241.16,241.16,0,0,1,48.94-5,189.74,189.74,0,0,1,34.26,3.08,153,153,0,0,1,30.18,8.56q13.4,5.49,21.44,12.45t8,14.95q0,8.69-6.06,13.7t-15.15,5a34.55,34.55,0,0,1-12-2.39Q111.74,235,103,232a160.2,160.2,0,0,0-21.21-5.36,163.85,163.85,0,0,0-30.41-2.4,104.58,104.58,0,0,0-39.5,7.3,91.65,91.65,0,0,0-31.46,21A93.67,93.67,0,0,0-40.32,286q-7.35,19.74-7.34,44.86,0,37,11.77,60.62t34.25,34.7q22.5,11.07,54.19,11.07a147.14,147.14,0,0,0,30.88-3.08,80.47,80.47,0,0,0,25-9.59,49,49,0,0,0,16.78-16.44q6.06-9.93,6.06-23.63a31.33,31.33,0,0,0-6.64-19.75q-6.65-8.55-19.46-13.58t-31.93-5.94q-19.58-1.36-30.65-5.48T31.57,324.73a15.48,15.48,0,0,1,6.88-13.48q6.87-4.78,19.69-6.73a209.62,209.62,0,0,1,30.76-1.94,190.92,190.92,0,0,1,43,4.45q19.23,4.46,32.74,13.7a61.93,61.93,0,0,1,20.75,23.63q7.22,14.38,7.22,34,0,29.22-11.3,49.54a86.28,86.28,0,0,1-31.7,32.54q-20.38,12.21-47.89,17.69A309.55,309.55,0,0,1,41.36,483.63Z" transform="translate(111.55 -170.8)"/><path class="cls-1" d="M377,489.79q-33.56,0-61.41-10.16A139,139,0,0,1,267.3,450.3a131.87,131.87,0,0,1-31.58-46.12q-11.19-26.94-11.19-60.5,0-31.51,10.14-55.94a131.41,131.41,0,0,1,27.62-42.24A153.34,153.34,0,0,1,302,216.28a198.62,198.62,0,0,1,47-17,221,221,0,0,1,48.94-5.6q35.65,0,65.72,10.28a159.34,159.34,0,0,1,52.44,29.34A132.82,132.82,0,0,1,550.8,279q12.36,26.6,12.36,59.47,0,36.32-14,64.5a134.25,134.25,0,0,1-39.38,47.6q-25.41,19.41-59.31,29.34T377,489.79ZM387.9,430q40.78,0,65.26-12.79t35.42-34a100.08,100.08,0,0,0,10.95-46.57q0-23.3-7.8-41.56a86.68,86.68,0,0,0-21.79-30.82,94.42,94.42,0,0,0-32.4-19,120,120,0,0,0-39.62-6.39,129.14,129.14,0,0,0-39.62,6.05,107.75,107.75,0,0,0-33.55,17.47A84.24,84.24,0,0,0,301.56,290q-8.52,16.22-8.51,36.3,0,24,7.11,43A96.46,96.46,0,0,0,320,402,85.41,85.41,0,0,0,350,422.79,98.06,98.06,0,0,0,387.9,430Z" transform="translate(111.55 -170.8)"/><path class="cls-1" d="M617.68,478.61a64.93,64.93,0,0,1-14-1.6,26.57,26.57,0,0,1-12.12-5.94q-4.89-4.33-4.89-12.78a22.12,22.12,0,0,1,4.54-14,29.87,29.87,0,0,1,11.89-9,37.29,37.29,0,0,1,15-3.2,41.74,41.74,0,0,1,12.93,2.17,29,29,0,0,1,11.19,6.51q4.54,4.34,4.54,11.64,0,9.13-4.31,15a25.48,25.48,0,0,1-11,8.56A36.15,36.15,0,0,1,617.68,478.61Zm3-73.52a20.64,20.64,0,0,1-9-1.83,16.62,16.62,0,0,1-6.76-6.39,40.81,40.81,0,0,1-4.78-12.56,168.68,168.68,0,0,1-3.14-20.09q-1.29-12.09-2-29t-.94-39.5q-.23-22.61-.23-51.6,0-12.09.12-21.8t.7-17.24a108.58,108.58,0,0,1,1.74-13.24,41.89,41.89,0,0,1,3-9.59,19.42,19.42,0,0,1,4.78-6.39,16.66,16.66,0,0,1,6.88-3.54,37.12,37.12,0,0,1,9.32-1,26.8,26.8,0,0,1,9,1.37,14.55,14.55,0,0,1,6.41,4.45,26.21,26.21,0,0,1,4.31,7.88,56.29,56.29,0,0,1,2.68,11.53q.93,6.74,1.4,15.52t.58,19.87q.12,11.07.12,24.77,0,26.25-.58,47t-1.64,36.42q-1,15.63-2.68,26.82a166,166,0,0,1-3.61,18.61A50.92,50.92,0,0,1,632,397.33a15.74,15.74,0,0,1-5.36,6.05A11.6,11.6,0,0,1,620.71,405.09Z" transform="translate(111.55 -170.8)"/></svg>