<svg id="Layer_1" data-name="Layer 1" xmlns="http://www.w3.org/2000/svg" viewBox="0 0 621.28 677.05"><defs><style>.cls-1{fill:#ffc9ce;}.cls-2{fill:none;stroke:#000;stroke-miterlimit:10;stroke-width:8px;}.cls-3{fill:#faeee0;}</style></defs><g id="Layer_7" data-name="Layer 7"><path class="cls-1" d="M1693.48,431.78c-2.13-37.94-19.76-73.18-39-105.92-12.36-21-25.78-41.7-43.79-58.07-27.18-24.7-62.94-37.74-98.59-46.56-59.46-14.73-100.35-25-160-11.23-103.3,23.77-130.8,41.21-175,104-29.64,42.12-17.47,97.38-27,148-8.37,44.48-57.71,90.76-69,137-8.69,35.62-3.82,82.19,6.12,117.48,12.33,43.74,48.6,52.46,81.1,84.23,17.74,17.33,60.23,30.43,83,40.24,28.46,12.26,57.26,30,88.26,29.91,32.09-.06,67.17,3.17,99.07-.31,30-3.26,60.25-8.18,87.35-21.34,36.34-17.64,61.6-54.24,80.88-89.73,22.46-41.32,33.65-85.73,38.27-131.88,4.39-43.84,24.83-83.83,37.71-125.43C1689.81,479.4,1694.82,455.73,1693.48,431.78Z" transform="translate(-1076.49 -203.53)"/><path class="cls-2" d="M1146.27,391.77c10.1-37.08,27.17-73,54.4-100.18,37.11-37,102.57-53.32,154.24-62,69.75-11.68,147.8-25.12,210.09,8.39,29.66,16,68,43,88,65,37.62,41.39,46,102,38,142-11,54.85-39.66,76-53,146-12,63,1,134.56-21,178-20,39.55-52.48,54.23-93.43,71.18s-85.43,23.14-129.37,29c-35.89,4.76-72.11,9.4-108.21,6.58s-72.51-13.7-100.35-36.85C1153.4,812.07,1134,777,1112,733c-23.28-46.55-34-79.17-31-121,2.44-34.43,34.75-79.46,45.89-112.22C1138.55,465.49,1136,426.91,1146.27,391.77Z" transform="translate(-1076.49 -203.53)"/></g><g id="Layer_8" data-name="Layer 8"><path class="cls-3" d="M1447.22,513.49c-10.41,7.62-23,21-35,25.65-13.84,5.32-9.45-12-9.58-23l-1-85.31q-.54-48.55-1.09-97.11c-28.62,13.84-42.57,46.66-49.28,77.73a311.69,311.69,0,0,0,9.82,166,70.3,70.3,0,0,0-29.74,20.55c-4-4.42-12.7-2.46-14.41,3.27-6-5.92-12.17-12-19.87-15.36-20.15-8.86-44.41.46-63.12,12a200.63,200.63,0,0,0-42.28,35.64c-12.37,13.61-21.2,31.38-20.35,49.75,1.34,28.72,29.69,53.26,58.31,50.46,11-1.08,21.46-5.58,31.26-10.78,33.16-17.61,63.23-47.34,67.41-84.65a40,40,0,0,1,1.21-7.56,28.74,28.74,0,0,1,3.41-6.75,134.37,134.37,0,0,1,11.47-15.48c6.26-7.3,14.37-14.37,24-14.25,10.08.13,18.55,8.53,22,18s3,19.86,2.45,29.93A28.51,28.51,0,0,1,1380,661.42c-4.13,2.58-8.86,4-13.17,6.33C1353.18,675,1345,690,1342.24,705.27s-.9,30.89,1,46.26c1.52,12.47,3.18,25.35,9.65,36.12,14.89,24.81,50.14,32.35,77.72,20.55,7.46-3.19,15.84-5.79,23.67-3.7,4.64,1.24,9.1,4.35,13.8,3.4,2.9-.59,5.28-2.65,7.14-4.95a28.13,28.13,0,0,0,2.49-30.92,22.08,22.08,0,0,1-22.72,9.72c2.63-28.2,4-57.29-3-84.75-2.15-8.49-8.43-16.62-13.74-23.58s-13.72-12.1-22.45-11.39q-4.3-30-8.6-59.93c-.5-3.48-1-7.22.67-10.34,1.88-3.62,6-5.36,9.73-6.94,41.33-17.33,76.69-46.23,109.58-76.66,28.08-26,56.62-57.3,57.75-95.55ZM1303.65,656.43c-1.65,7.16-3.52,14.44-7.59,20.56a51.32,51.32,0,0,1-7.88,8.85,117.39,117.39,0,0,1-51.54,27.82c-3.7.92-7.59,1.64-11.29.71a26,26,0,0,1-7.3-3.59c-6.07-3.82-12.31-7.79-16.48-13.63-7.2-10.08-6.79-24.12-1.8-35.45s13.89-20.44,23.07-28.74c8.75-7.91,18.09-15.43,28.9-20.15s23.34-6.41,34.46-2.48c10.38,3.67,18.77,14.92,19.79,25.86C1306.62,643,1305.19,649.79,1303.65,656.43Zm107.71,24.08c9.44,3.25,15.74,11.91,18.74,21,6.22,18.91,2.85,39.41,1.26,59.25-.6,7.48-1.06,15.4-5.27,21.62-5.19,7.67-14.92,10.93-24.15,11.78-6,.56-12.46.2-17.53-3.1s-7.9-8.82-10.3-14.27c-5.86-13.36-9.92-27.67-10.32-42.26s3-29.5,11.17-41.62a31.56,31.56,0,0,1,9.54-9.74C1391.38,679.06,1403.62,677.85,1411.36,680.51Z" transform="translate(-1076.49 -203.53)"/><path class="cls-2" d="M1392.81,648.43a176.21,176.21,0,0,0-3.85-30.52c-.9-4.19-2-8.44-4.39-12s-5.68-6-8.7-8.83c-17.92-16.8-23.39-42.74-26.76-67.07-7.38-53.2-8.76-109.43,13.26-158.41,7.49-16.67,21.72-34,38.32-41.61a2569.78,2569.78,0,0,0,11.46,314.25" transform="translate(-1076.49 -203.53)"/><path class="cls-2" d="M1317,604c-12-15-25.35-23.35-43.59-23.59-14-.18-28.87,8-40.47,15.72a298.39,298.39,0,0,0-37.29,29.46c-10.2,9.47-18,19-23.2,31.85a57.07,57.07,0,0,0,38.08,76.66c30,8,61.07-9.37,84.19-30.19,11.38-10.25,22.06-21.77,28.34-35.73S1333,638.62,1326,625" transform="translate(-1076.49 -203.53)"/><path class="cls-2" d="M1396.89,660.33C1377,660,1357,669,1349.82,684.11c-8.26,17.36-8,37.39-6.56,56.56s4.17,39.6,16.07,54.84c9.88,12.65,25.53,20.37,41.54,21.45s42.13-7,46.13-16" transform="translate(-1076.49 -203.53)"/><path class="cls-2" d="M1413,659c26,3,39,18,43.64,54.26,3.1,24.29.89,48.5-2.64,72.74" transform="translate(-1076.49 -203.53)"/><path class="cls-2" d="M1406.07,543.64l179.78-132.38" transform="translate(-1076.49 -203.53)"/><path class="cls-2" d="M1314,598a51.58,51.58,0,0,1,4.38-3.49,7.06,7.06,0,0,1,9.57,1.54c3.63,4.74,6.13,10.57,8.83,15.8a6.88,6.88,0,0,1-2.12,8.76A116.28,116.28,0,0,1,1323,628" transform="translate(-1076.49 -203.53)"/><path class="cls-2" d="M1385,659c-1-8,.8-10.72,4-12,5-2,6.57-1.7,10-2,4.27-.38,9.78-.75,14,0s4.06,8.62,4,14" transform="translate(-1076.49 -203.53)"/><path class="cls-2" d="M1270,607c-12.68.63-22.88,6.22-33.08,13.78-9.37,6.94-14,9.86-21.76,18.59-7.09,8-13.51,15.84-16.89,26s-3.39,21.76,1.84,31.08c8.34,14.83,26.12,21.16,42.69,17.3s30.45-14.94,42.84-26.59c9.39-8.84,15-16,19.36-28.14C1313.29,635.71,1296.93,605.65,1270,607Z" transform="translate(-1076.49 -203.53)"/><path class="cls-2" d="M1371,697c-6.65,10.89-9.68,21.22-8.8,34,.47,6.81,1.25,13.6,2.34,20.33,2.4,14.92,7.28,31,20,39.14,14.76,9.46,37.26,2.79,44.47-13.21,3-6.71,3.53-14.24,4-21.58l1.06-16.79c.86-13.7,2.4-27.25-3.06-39.84C1420.42,674.57,1385.2,673.74,1371,697Z" transform="translate(-1076.49 -203.53)"/><path class="cls-2" d="M1454,782c4,1,5.59,1.48,8.17,2.07a6.69,6.69,0,0,0,7.66-3.91c1.32-3.25,4.55-5.68,8.68-4.65a6.85,6.85,0,0,1,3.36,2c2.31,2.56,1.78,5.56,1.1,8.35a81.2,81.2,0,0,1-6.32,17.13c-1.12,2.22-2.47,4.51-4.69,5.61-2.52,1.26-5.54.68-8.26,0-6.93-1.82-12.7-2.55-21.7-6.55" transform="translate(-1076.49 -203.53)"/><path class="cls-2" d="M1327.74,595.36l31-19.13" transform="translate(-1076.49 -203.53)"/><path class="cls-2" d="M1338.44,613.56l34-22.53" transform="translate(-1076.49 -203.53)"/><path class="cls-2" d="M1583,408c7,9-13,59.18-32.53,80.45a406.26,406.26,0,0,1-141.92,99.48" transform="translate(-1076.49 -203.53)"/><path class="cls-2" d="M1388,569c-5,0-8,2-8.71,6a7.18,7.18,0,0,0,7,7.85c4-.1,7.73-2.83,7.73-6.82,0-3-1-6-5-7Z" transform="translate(-1076.49 -203.53)"/></g></svg>