<svg id="Layer_1" data-name="Layer 1" xmlns="http://www.w3.org/2000/svg" viewBox="0 0 2065.16 480.94"><defs><style>.cls-1{fill:none;stroke:#e94b3f;stroke-miterlimit:10;stroke-width:8px;stroke-dasharray:54;}</style></defs><path class="cls-1" d="M-45.31,408.44C81.5,537,272.46,580.63,453,581.82c86,.57,172.93-7.32,254.33-35s157.31-76.42,207.44-146.27c6.68-9.31,13.06-19.41,14.5-30.78,3.47-27.46-25.07-51-52.75-51.05s-52.59,16.84-72.33,36.24c-66.09,64.93-90.51,178.56-33.71,251.76,18.24,23.5,43,41.14,69,55.7,87.9,49.3,193.65,65.92,292.43,46,63.19-12.77,124.27-40,188.74-39.58,94.44.61,177.09,59.5,265.61,92.43C1725.35,812.94,1887.6,798,2015,721.83" transform="translate(48.16 -314.7)"/></svg>