<svg id="Layer_1" data-name="Layer 1" xmlns="http://www.w3.org/2000/svg" viewBox="0 0 672.32 715.07"><defs><style>.cls-1{fill:#ffd97e;}.cls-2{fill:none;stroke:#000;stroke-miterlimit:10;stroke-width:8px;}.cls-3{fill:#faeee0;}</style></defs><path class="cls-1" d="M1462,328c-11-23.29-23.92-45.63-42-64-20.94-21.27-53.59-34.6-83-39.89-53.9-9.71-108.4-21.18-163-16.31s-110.45,29-139.24,75.57c-11.22,18.16-17.8,38.73-25.57,58.62a499.39,499.39,0,0,1-51.22,97.65c-24.78,36.7-54.84,70.85-69.72,112.56-24.27,68-.19,150.42,56.92,194.68,26.33,20.4,57.84,32.71,88.38,46a1236.27,1236.27,0,0,1,142.76,73.5c23.38,14,46.66,29,72.77,36.83,45.4,13.63,97.29,3.21,133.92-26.88,51.13-42,67.32-112.15,101.51-168.8,12.19-20.2,26.84-38.88,38.24-59.53,46-83.25,29-180-23.87-254.89C1483.26,370.9,1473.71,352.7,1462,328Z" transform="translate(-877.22 -194.05)"/><path class="cls-2" d="M1513.17,477.84c12.95,54.09,39.29,115.35,21.83,168.16-11.09,33.56-48,72-83,99-52.36,40.39-76.08,90.92-133.87,123.07-19.62,10.91-40.62,19.81-62.79,23.37-50.78,8.16-102.45-12.61-144-42.87s-75.47-69.65-112.37-105.48c-30.63-29.76-63.84-57.57-87.86-92.89S873.13,569.63,886.29,529c7.88-24.33,24.54-44.64,39.58-65.33a606.26,606.26,0,0,0,70.87-127.34c9.1-22.3,17.08-45.53,31.73-64.65,11.06-14.43,25.54-26,41-35.49,76.4-47.1,174.2-45.74,260.76-22,28.92,7.92,57.55,18.32,82.32,35.23,28.41,19.39,55.89,53,63.64,87.11C1487,384.06,1501.83,430.45,1513.17,477.84Z" transform="translate(-877.22 -194.05)"/><path class="cls-3" d="M1198.52,399c0-11.07,1-23.77,9.82-30.4,4.62-3.47,10.56-4.54,16.28-5.32,6.25-.84,13.15-1.31,18.3,2.33,6.37,4.52,7.49,13.36,8,21.15l6.57,92.85c8.07-8.37,16.82-17.12,28.16-19.62s25.53,4.58,25.85,16.2c.18,6.53-3.86,12.34-7.83,17.53a478.08,478.08,0,0,1-51.19,56.92c-4,3.77-8.3,7.62-13.67,8.72-6.84,1.41-13.69-2-19.74-5.45a255.41,255.41,0,0,1-51.92-39.72c-11.07-11-21.69-24.38-21.91-40-.11-8.27,3.68-17.36,11.42-20.28,4.32-1.63,9.21-1.08,13.56.48,14.92,5.37,21,19.64,29.74,31.35,6.16-8.19.68-27.55.08-37.28Q1198.57,423.76,1198.52,399Z" transform="translate(-877.22 -194.05)"/><path class="cls-3" d="M1376,565.64c8.33-9.52,25.59-10.39,33.07-.2,2.52,3.44,6,7.42,7,11.56,4.73,19.37,3,40-.85,59.53a12.29,12.29,0,0,1-1.39,4.21,10.56,10.56,0,0,1-4.44,3.61c-10.23,5.11-22.36,3.39-33.76,2.44-25.69-2.14-51.51.24-77.24,1.77-71.87,4.25-144,1.81-215.91-.73-4.64-.16-9.77-.53-13-3.84-2.66-2.71-3.38-6.73-3.94-10.49-2.08-13.9-3.76-27.89-4-42-.14-8.34.34-17.09,4.56-24.29s13.23-12.24,21.07-9.37c10.16,3.72,12.27,16.92,12.73,27.73l.74,17.14a9.66,9.66,0,0,0,1,4.61c1.87,3.13,6.33,3.14,10,2.78,80.48-7.88,161.53-2.47,242.11-8.46,3.41-.26,14,.62,16.72-1.42,3.45-2.58.64-5.74-.15-9.81C1368.5,581.86,1370.07,572.37,1376,565.64Z" transform="translate(-877.22 -194.05)"/><path class="cls-2" d="M1102,587c-.3-11.57-7.06-26.09-18.15-29.39-9-2.68-18.53,4.4-22,13.12s-2.36,18.48-1.23,27.79q2.16,17.85,4.33,35.7c.56,4.68,1.35,9.81,4.9,12.91,3.36,2.94,8.22,3.21,12.68,3.33,54.4,1.49,108.83,3,163.25,2,52.73-1,105.38-4.28,158-7.58,3-.19,6.26-.47,8.55-2.44s3.11-5.28,3.65-8.32c2.81-16.09,5.29-35.93,3-52.1-1.69-11.79-8.69-22-20.13-25.3-10-2.9-20.8,4-25.23,13.43-3.75,7.93-3.84,17-2.48,25.75a4.33,4.33,0,0,1-4.1,5C1289.39,604.08,1246.24,604,1167,604c-12,0-54.2,3.13-61,2C1100,605,1102.21,595.07,1102,587Z" transform="translate(-877.22 -194.05)"/><path class="cls-2" d="M1200.82,389.43c.09-7.28.45-15.16,5.08-20.78,5.69-6.91,15.7-8,24.63-8.49,5.49-.32,11.46-.51,15.91,2.72,5.34,3.87,6.56,11.19,7.27,17.75,3.46,31.73,7.14,68.45,7.29,100.37,8.4-9.18,17.36-20.91,29.22-24.66,8.59-2.72,13.78-2.34,21.78,8.66,4.91,6.75,7.41,13.91,3,21-16.82,27-43.33,49.22-69.2,67.75-4.34,3.11-9.12,6.19-14.45,6.27-5.88.09-11.12-3.45-15.91-6.84C1204.09,545.15,1196,537,1185,527c-16-14.53-36.21-25.19-42-46-3.07-11,4.26-21,14-27,11.09-6.83,15.31-3.37,23.22,5.14,3.17,3.4,14,24.27,19.88,22.73C1205.58,480.45,1200.68,399.45,1200.82,389.43Z" transform="translate(-877.22 -194.05)"/></svg>