<svg id="Layer_1" data-name="Layer 1" xmlns="http://www.w3.org/2000/svg" viewBox="0 0 843.35 283.19"><defs><style>.cls-1{fill:#faeee0;}.cls-2{fill:none;stroke:#000;stroke-miterlimit:10;stroke-width:8px;}</style></defs><path class="cls-1" d="M1729,0H913.12c-5.14,10.36-9.64,20.22-13.65,28.49-8.12,16.73-15.28,35.28-9.86,52.85,6.5,21,29.73,35,53.48,40.85s48.81,5.32,73.28,7.95a274.85,274.85,0,0,1,110.35,36.31c29.91,17.77,55.4,41.11,86.57,57.09,45.35,23.25,106.58,42.2,156.82,29,26-6.86,66.77-31.76,93.81-34,38.89-3.23,108.79,18.56,146.94,26,53.36,10.41,80.82.46,118.12-13.66Z" transform="translate(-887.72 0.64)"/><path class="cls-2" d="M1729,231c-40.69,25-54.26,21-84.78,26-31.19,5.11-114.19-20.38-145.8-19-59.22,2.59-119.39,49.57-177.46,39-53.15-9.68-82.65-38.69-125.94-67.63-45-30.06-103.26-46.71-157.76-59.37s-113-27.21-131.81-74.21C899.15,60.06,897.5,16.51,894.82,0" transform="translate(-887.72 0.64)"/></svg>