<svg id="Layer_1" data-name="Layer 1" xmlns="http://www.w3.org/2000/svg" viewBox="0 0 704.06 679.87"><defs><style>.cls-1{fill:#dbdfbc;}.cls-2{fill:none;stroke:#000;stroke-miterlimit:10;stroke-width:8px;}.cls-3{fill:#faeee0;}</style></defs><path class="cls-1" d="M263.87,503.41c-5,19-16.69,35.45-27.44,51.92-19.89,30.46-37.31,62.82-48.14,97.54-8,25.82-12.39,53.43-7.18,80s21,51.87,45.28,63.88C251.06,808.94,285.21,811.67,312,818c36.69,8.67,70,30,96.5,43.76,46.09,23.94,101,22.8,152.9,22.8,37.1,0,76.39-1.28,107.62-21.29,19.39-12.42,33.93-31.08,46.43-50.43,34.72-53.75,56.56-115.31,94.07-167.15,22.8-31.51,51.63-59.92,64.36-96.67,20.79-60,2.64-122.32-23.88-180-10.36-22.54-24.76-45-38-66-13.09-20.74-57.09-51.21-82-62-81.63-35.35-167.11-38.57-255-25.14C423.52,223.72,373.57,245,333.41,278.3,296.93,308.53,265.29,331.08,266,402,266.32,434.37,272.29,471.2,263.87,503.41Z" transform="translate(-178.84 -204.7)"/><path class="cls-2" d="M860,425c7,27,9,61,9,84,0,26-14.37,61.43-25,77-43,63-67.24,137.62-77,160-17,39-51.31,68.63-74,85-45.92,33.13-112.13,32.51-168.73,34-42.33,1.12-84.67,1.33-127,1.53-30.87.14-62.89.05-90.9-12.93-38.58-17.88-62.56-56.84-81.11-95.1-20.32-41.9-37.22-87.59-32.89-134,5.3-56.77,41.21-105.42,61.2-158.81,22.55-60.24.15-108.09,46.44-152.75,17.89-17.26,57.7-47.62,89.87-62.83C441,226,554,206,605,209c53.73,3.16,93.13,26.56,140,54,41,24,62,52,78,76C843.89,370.34,858.17,418,860,425Z" transform="translate(-178.84 -204.7)"/><path class="cls-3" d="M390,401.43c-9.22,4.67-15.79,16.1-11.68,25.58-12.36-1.69-24,8.12-28.6,19.7s-3.94,24.51-3.18,37q4.49,73,8.95,146.08c.22,3.6.51,7.4,2.57,10.35,3.72,5.35,11.36,5.7,17.86,5.49q22-.71,44.05-1.87a369.79,369.79,0,0,0,6.32,60c1.17,6.21,2.6,12.62,6.41,17.67,8.44,11.18,24.74,11.68,38.73,11.15l141.1-5.32c7.67-.29,16.45-1.14,21-7.37,2.86-4,3.19-9.15,3.43-14l1.68-35.3c.27-5.7,1.19-12.46,6.3-15,2.24-1.12,4.86-1.14,7.37-1.18a176.66,176.66,0,0,0,46.41-7.05c4.48-1.32,9.23-3,11.88-6.88,2.41-3.49,2.58-8,2.64-12.26a1593.79,1593.79,0,0,0-7.54-181.48c-.47-4.78-1.32-10.18-5.29-12.89-3.45-2.36-8.24-1.87-11.76-4.12-4.24-2.7-5.29-8.29-7.72-12.69-8.15-14.8-29.46-13.88-46-10.24-.14-8.09-6.32-15.09-13.62-18.58s-15.58-4.14-23.66-4.63a999.24,999.24,0,0,0-164.73,3.6c-8.55.9-9.14,8.16-14.5,10.2C409.57,400.69,399.4,396.69,390,401.43Z" transform="translate(-178.84 -204.7)"/><path class="cls-2" d="M639.5,428.5c15.75-1.95,35.7-.24,51.54.87,4.31.3,8.78.77,12.47,3,8.13,4.95,9.32,16.06,9.62,25.57l4.26,131.88c.32,9.82.64,19.65.41,29.47-.21,8.77-1.18,18.3-7.22,24.65-6.19,6.52-15.94,7.87-24.9,8.45a313.53,313.53,0,0,1-43.67-.19" transform="translate(-178.84 -204.7)"/><path class="cls-2" d="M420.46,432.29l-38.93-1.5c-8.35-.33-17.26-.51-24.37,3.87-11.59,7.15-13.55,22.92-14.07,36.52a1207.42,1207.42,0,0,0,4.53,159.57c.68,7.2,2.3,15.67,8.91,18.61a19.76,19.76,0,0,0,7.57,1.26c17.75.53,37,2.31,54.4-1.12" transform="translate(-178.84 -204.7)"/><path class="cls-2" d="M378.57,542.61c30.21,4,60.83,3.37,91.31,2.73l216.2-4.55" transform="translate(-178.84 -204.7)"/><path class="cls-2" d="M422.8,397.68c-9.55-1-19.17.07-28.71,1.11-4.57.5-9.35,1.08-13.1,3.72-4.07,2.87-6.29,7.8-7,12.72s0,9.94.66,14.87" transform="translate(-178.84 -204.7)"/><path class="cls-2" d="M640.5,401.5c13,1,28.14-4.64,38.4,2.71,6.88,4.94,9.25,14.26,8.8,22.72" transform="translate(-178.84 -204.7)"/><path class="cls-2" d="M418.12,544.36q-.15,79.93,4.56,159.79c.3,5.08.67,10.35,3.14,14.79,3.48,6.27,10.5,9.72,17.42,11.59,11.25,3,23.09,2.89,34.74,2.72l103.93-1.53c11.84-.17,23.72-.35,35.46-1.93,5.34-.73,11-1.94,14.72-5.86,2.27-2.4,3.52-5.57,4.49-8.73,4-13.09,4-27.05,4-40.75-.11-42.82,0-91.13-.08-134" transform="translate(-178.84 -204.7)"/><path class="cls-2" d="M420.5,481.5c-3.13-28.33-3-64.85,0-84,.91-5.87,0-8,8-13,5.43-3.39,10.67-2.88,13-3,59.3-3.17,108.3-.61,167.65,1.48,11.48.41,25.37,2.5,29.74,13.13,1.64,4,1.51,8.44,1.35,12.75-.79,22.05-1,49.58-1.74,71.64" transform="translate(-178.84 -204.7)"/><path class="cls-2" d="M689.5,466.5c.17-5.42-4.52-10.14-10.35-10.94s-11.86,3.13-13.81,8.69a13.61,13.61,0,0,0,4.33,14.89,12.87,12.87,0,0,0,15.38,0c4.32-3.45,4.45-7.6,4.45-11.6Z" transform="translate(-178.84 -204.7)"/><path class="cls-2" d="M689.16,505c-2-6-9.09-9.86-15.17-8.08s-10,9-8,15,6.16,7.55,12.49,7.55a12.68,12.68,0,0,0,9-4c2-2,3-5,2-9Z" transform="translate(-178.84 -204.7)"/><path class="cls-2" d="M418.5,479.5c71.48,2,150.57,1.35,222-2" transform="translate(-178.84 -204.7)"/><path class="cls-2" d="M420.22,614.49a29.58,29.58,0,0,1,19.84-6.08,24.48,24.48,0,0,1,18,10c4.2,6,5.18,13.61,5.6,20.91.63,10.91.3,21.91,2,32.72s5.55,21.67,13.31,29.37c10.49,10.43,26.44,13.46,41.2,12.38s29-5.71,43.52-8.47,30.16-3.51,43.55,2.78a44.85,44.85,0,0,1,19.25,17.42" transform="translate(-178.84 -204.7)"/><path class="cls-2" d="M497.73,546.52c.22,6.3.47,12.74,2.77,18.61s7.1,11.16,13.3,12.29c3.35.61,6.78,0,10.14-.58,13-2.18,26.53-3.31,39.27.13,5.47,1.48,10.7,3.78,16.21,5.12,20.28,4.9,41.2-3.75,59.83-13.15" transform="translate(-178.84 -204.7)"/></svg>