<svg id="Layer_1" data-name="Layer 1" xmlns="http://www.w3.org/2000/svg" viewBox="0 0 1793.98 418.26"><defs><style>.cls-1{fill:#faeee0;}.cls-2{fill:none;stroke:#000;stroke-miterlimit:10;stroke-width:8px;}</style></defs><path class="cls-1" d="M1789.94,954.32c-49.36-18.29-107.63-19-161.75-13.85-73.15,6.93-147.28,22.27-219.39,9.07-96-17.58-177.85-84.16-275.69-88.27-45-1.88-89.18,9.82-134,14s-94.51-.85-126.46-29.78c-17.49-15.83-31.06-48.11-50-62.5-48.4-36.79-117.73.63-173.81,26.83C582.22,841,512.75,870.1,438.41,878.5s-155.19-6.68-209.06-54.15c-31-27.33-51-63.12-76.26-95-34.85-44-83-77-145.22-65.14L.22,665.67V1080H1789.94Z" transform="translate(2.14 -661.74)"/><path class="cls-2" d="M-.87,685c48.64-16.24,88.34.84,101.39,6.58,21.43,9.42,60.53,39,76.26,64.42C191,779,240.39,871,311.67,873c60,1.68,139.84-9.65,193.8-33.63S598.24,803,651.63,778c63.44-29.75,141.68-35.49,186.42,1,16.69,13.61,30.29,45.31,48.24,57.52C962,888,1050.94,843.37,1114.41,846c98.2,4.08,151,89.54,247.84,105,81.07,13,176.46-31.32,279.64-27,71.34,3,112.95,33,148,52" transform="translate(2.14 -661.74)"/></svg>