<svg id="visual" xmlns="http://www.w3.org/2000/svg" viewBox="0 0 452.05 501.47" preserveAspectRatio="none"><defs><style>.cls-1{fill:#f8ba43;}</style></defs><path class="cls-1" d="M452.81,164c4.22,46.49-19.19,101.33-24.69,149.57s19.1,93.46,15,133.75-37,75.55-77.4,84.17-87.9-5.82-139.6.38-107.5,32.74-150,25.38-71.28-52.63-74.58-99S25.9,367.32,30,321.9s-5.81-89.15-4.28-122.34c1.75-37.92,8.91-80.36,54.21-103.37C129.6,71,145.56,113.27,224.2,78.06,277,54.41,321.77,50.91,364,66.63,364,66.63,446.85,98.29,452.81,164Z" transform="translate(-1.27 -57.05)"/></svg>