<svg xmlns="http://www.w3.org/2000/svg" viewBox="0 0 2040.81 190.15" preserveAspectRatio="none"><defs><style>.cls-1{fill:#b6ace4;}.cls-2{fill:#afd0f3;}</style></defs><g id="Layer_2" data-name="Layer 2"><g id="Layer_1-2" data-name="Layer 1"><g id="Layer_2-2" data-name="Layer 2"><g id="Layer_2-2-2" data-name="Layer 2-2"><path class="cls-1" d="M2040.81,103.37c-48.68-49-109.92-42.55-178.65-49.45S1788.65,48.8,1692.46,40c-166.12-17.64-387.17-42.19-556.84-25.8-89,8.61-176.19,30.33-264.1,46.87C585,115,290.65,113.75,0,91v99.17H2040.81Z"/><path class="cls-2" d="M2040.81,8.84c-122.33-26.48-248.65,12.78-371.49,36-167.8,31.69-338.06,73.77-508.77,69.05-193.41-5.4-391.3-90-583.35-63.07C382.89,78,194,189.42,0,159v31.16H2040.81Z"/></g></g></g></g></svg>