<svg xmlns="http://www.w3.org/2000/svg" viewBox="0 0 2040.81 189.37" preserveAspectRatio="none"><defs><style>.cls-1{fill:#b6ace4;}.cls-2{fill:#afd0f3;}</style></defs><g id="Layer_2" data-name="Layer 2"><g id="Layer_2-2" data-name="Layer 2"><path class="cls-1" d="M0,86.78c48.68,49,118.62,71.56,187.36,78.46S312,136.63,380.75,143.1c181.94,17.12,336.39,54.8,505.07,44.52,89.28-5.44,194.39-50.41,283.47-58.57,290.42-26.57,551.81-66.17,871.52-29.88V0H0Z"/><path class="cls-2" d="M0,187.62c121.87-.9,239.39-9.46,371.49-42.26C537.57,104.12,710.38,100,880.72,104.79c193.42,5.4,388.66,80.59,579,43.41,193.93-37.87,208.12-119.82,581.1-117V0H0Z"/></g></g></svg>